/* XPM */
static char *_92846ce2fe24a819e05af6b43462d83ck2bZXXptS3lfSCN[] = {
/* columns rows colors chars-per-pixel */
"40 80 43 1 ",
"  c black",
". c #3A0000",
"X c #3A3A00",
"o c #00003A",
"O c #003A3A",
"+ c #3A3A3A",
"@ c #660000",
"# c #663A00",
"$ c #663A3A",
"% c #000066",
"& c #003A66",
"* c #3A3A66",
"= c #3A6666",
"- c #903A00",
"; c #B66600",
": c #90663A",
"> c #B6663A",
", c #B6903A",
"< c #DB903A",
"1 c #B69066",
"2 c #DBB666",
"3 c #FFB666",
"4 c #003A90",
"5 c #0066B6",
"6 c #3A66B6",
"7 c #3A90B6",
"8 c #6690B6",
"9 c #3A90DB",
"0 c #66B6DB",
"q c #66B6FF",
"w c #DBB690",
"e c #FFDB90",
"r c #FFDBB6",
"t c #FFFFB6",
"y c #90B6DB",
"u c #90DBFF",
"i c #B6DBFF",
"p c #B6FFFF",
"a c gray86",
"s c #FFDBDB",
"d c #FFFFDB",
"f c #DBFFFF",
"g c white",
/* pixels */
"gggggggggggggggggggggggggggggggggggggggg",
"gggggggggggggggggggggggggggggggggggggggg",
"gggggggggggggggggggggggggggggggggggggggg",
"gggggggggggggggggggggggggggggggggggggggg",
"gggggggggggggggggggggggggggggggggggggggg",
"gggggggggggggggggggggggggggggggggggggggg",
"gggggggggggggggggggggggggggggggggggggggg",
"gggggggggggggggggggggggggggggggggggggggg",
"gggggggggggggggggggggggggggggggggggggggg",
"gggggggggggggggggggggggggggggggggggggggg",
"gggggggggggggggggggggggggggggggggggggggg",
"gggggggggggggggggggggggggggggggggggggggg",
"gggggggggggggggggggggggggggggggggggggggg",
"gggggggggggggggggggggggggggggggggggggggg",
"gggggggggggggggggggggggggggggggggggggggg",
"gggggggggggggggs1$X    +=yfggggggggggggg",
"gggggggggggggw#            *iggggggggggg",
"gggggggggggr#                6fggggggggg",
"gggggggggg2.                  &igggggggg",
"ggggggggg2                     %pggggggg",
"gggggggg3       o6agggs1.       4fgggggg",
"gggggggt@      6fgggggggd>       5gggggg",
"ggggggg;      9ggggggggggg<      ouggggg",
"gggggg3      5ggggggggggggg;      5ggggg",
"gggggd-     %pgggggggggggggt@     ougggg",
"ggggg3      qggggggggggggggg3      5gggg",
"ggggg;     4fgggggggggggggggt@     %pggg",
"ggggt@     9ggggggggggggggggg<      qggg",
"gggg3     ouggggggggggggggggge.     5ggg",
"gggg;     4fggggggggggggggggd>      4fgg",
"gggd-     5ggggggggggggggggr#       %pgg",
"gggt@     qggggggggggggggge.        ougg",
"ggge.    ougggggggggggggg<           qgg",
"ggg3     %pggggggggggggd>            9gg",
"ggg<     %pgggggggggggr#             5gg",
"ggg;     4fggggggggggw.       7-     5gg",
"ggg;     4fggggggggg<       oud-     4fg",
"ggg;     5ggggggggd-       &igg;     4fg",
"ggd-     5gggggggr#       6fggg;     4fg",
"ggd-     5gggggg2.       9ggggg;     4fg",
"ggd-     5ggggg<       ougggggg<     4fg",
"ggd-     5gggd-       &iggggggg;     4fg",
"ggg;     5ggr#       6fgggggggg;     4fg",
"ggg;     5g2.       9gggggggggg;     4fg",
"ggg;     4,       ouggggggggggg;     5gg",
"ggg<             &igggggggggggd-     5gg",
"ggg<            6fggggggggggggt@     9gg",
"ggg3          o0gggggggggggggge.     qgg",
"ggge.        ouggggggggggggggg3     ougg",
"gggt@       4fgggggggggggggggg<     %pgg",
"gggd-      6fggggggggggggggggg;     5ggg",
"gggg<     ougggggggggggggggggt@     9ggg",
"gggge.     9ggggggggggggggggg3     ouggg",
"ggggd-     4fgggggggggggggggd-     4fggg",
"ggggg<      qggggggggggggggge.     qgggg",
"ggggge.     4fgggggggggggggd-     %pgggg",
"gggggg;      9ggggggggggggg<      9ggggg",
"gggggge.      9ggggggggggg2      4fggggg",
"ggggggg<       6fgggggggd,      ougggggg",
"gggggggd-       o8aggga1.       qggggggg",
"ggggggggt#                     9gggggggg",
"gggggggggd-                  o0ggggggggg",
"ggggggggggd>                &igggggggggg",
"ggggggggggggr:            O0gggggggggggg",
"ggggggggggggggdw:+    O*8igggggggggggggg",
"gggggggggggggggggggggggggggggggggggggggg",
"gggggggggggggggggggggggggggggggggggggggg",
"gggggggggggggggggggggggggggggggggggggggg",
"gggggggggggggggggggggggggggggggggggggggg",
"gggggggggggggggggggggggggggggggggggggggg",
"gggggggggggggggggggggggggggggggggggggggg",
"gggggggggggggggggggggggggggggggggggggggg",
"gggggggggggggggggggggggggggggggggggggggg",
"gggggggggggggggggggggggggggggggggggggggg",
"gggggggggggggggggggggggggggggggggggggggg",
"gggggggggggggggggggggggggggggggggggggggg",
"gggggggggggggggggggggggggggggggggggggggg",
"gggggggggggggggggggggggggggggggggggggggg",
"gggggggggggggggggggggggggggggggggggggggg",
"gggggggggggggggggggggggggggggggggggggggg"
};
