/* XPM */
static char *e635c5b8cf514477b0f40d101a3274d1icaxphfI8PsM3Rjb[] = {
/* columns rows colors chars-per-pixel */
"40 80 28 1 ",
"  c black",
". c #3A0000",
"X c #00003A",
"o c #660000",
"O c #663A00",
"+ c #003A66",
"@ c #663A66",
"# c #B66600",
"$ c #90663A",
"% c #B6663A",
"& c #DB903A",
"* c #B69066",
"= c #DBB666",
"- c #FFB666",
"; c #3A6690",
": c #0066B6",
"> c #3A66B6",
", c #6690B6",
"< c #66B6DB",
"1 c #66B6FF",
"2 c #DBB690",
"3 c #FFDBB6",
"4 c #FFFFB6",
"5 c #90B6DB",
"6 c #B6DBFF",
"7 c #FFFFDB",
"8 c #DBFFFF",
"9 c white",
/* pixels */
"9999999999999999999999999999999999999999",
"9999999999999999999999999999999999999999",
"9999999999999999999999999999999999999999",
"9999999999999999999999999999999999999999",
"9999999999999999999999999999999999999999",
"9999999999999999999999999999999999999999",
"9999999999999999999999999999999999999999",
"9999999999999999999999999999999999999999",
"9999999999999999999999999999999999999999",
"9999999999999999999999999999999999999999",
"9999999999999999999999999999999999999999",
"9999999999999999999999999999999999999999",
"9999999999999999999999999999999999999999",
"9999999999999999999999999999999999999999",
"9999999999999999999999999999999999999999",
"9999999999999999999999999999999999999999",
"999999999999999993$     :999999999999999",
"9999999999999993$       :999999999999999",
"99999999999997%         :999999999999999",
"999999999997%.          :999999999999999",
"9999999997*.            :999999999999999",
"99999997=.              :999999999999999",
"999999=.        ;*      :999999999999999",
"99992O        +59-      :999999999999999",
"9994o       X,899-      :999999999999999",
"9999&      +69999-      :999999999999999",
"99994o   X<999999-      :999999999999999",
"99999&  >89999999-      :999999999999999",
"999994@6999999999-      :999999999999999",
"99999999999999999-      :999999999999999",
"99999999999999999-      :999999999999999",
"99999999999999999-      :999999999999999",
"99999999999999999-      :999999999999999",
"99999999999999999-      :999999999999999",
"99999999999999999-      :999999999999999",
"99999999999999999-      :999999999999999",
"99999999999999999-      :999999999999999",
"99999999999999999-      :999999999999999",
"99999999999999999-      :999999999999999",
"99999999999999999-      :999999999999999",
"99999999999999999-      :999999999999999",
"99999999999999999-      :999999999999999",
"99999999999999999-      :999999999999999",
"99999999999999999-      :999999999999999",
"99999999999999999-      :999999999999999",
"99999999999999999-      :999999999999999",
"99999999999999999-      :999999999999999",
"99999999999999999-      :999999999999999",
"99999999999999999-      :999999999999999",
"99999999999999999-      :999999999999999",
"99999999999999999-      :999999999999999",
"99999999999999999-      :999999999999999",
"99999999999999999-      :999999999999999",
"99999999999999999-      :999999999999999",
"99999999999999999-      :999999999999999",
"99999999999999999-      :999999999999999",
"99999999999999999-      :999999999999999",
"99999999999999999-      :999999999999999",
"99999#                             19999",
"99999#                             19999",
"99999#                             19999",
"99999#                             19999",
"99999#                             19999",
"99999#                             19999",
"9999999999999999999999999999999999999999",
"9999999999999999999999999999999999999999",
"9999999999999999999999999999999999999999",
"9999999999999999999999999999999999999999",
"9999999999999999999999999999999999999999",
"9999999999999999999999999999999999999999",
"9999999999999999999999999999999999999999",
"9999999999999999999999999999999999999999",
"9999999999999999999999999999999999999999",
"9999999999999999999999999999999999999999",
"9999999999999999999999999999999999999999",
"9999999999999999999999999999999999999999",
"9999999999999999999999999999999999999999",
"9999999999999999999999999999999999999999",
"9999999999999999999999999999999999999999",
"9999999999999999999999999999999999999999"
};
