/* XPM */
static char *_df19146fb5247d3da5ba6922d3bd9e4WvB3tPYJMs3romfD[] = {
/* columns rows colors chars-per-pixel */
"40 80 7 1 ",
"  c black",
". c #B66600",
"X c #003A90",
"o c #0066B6",
"O c #3A90DB",
"+ c #DBFFFF",
"@ c white",
/* pixels */
"@@@@@@@@@@@@@@@@@@@@@@@@@@@@@@@@@@@@@@@@",
"@@@@@@@@@@@@@@@@@@@@@@@@@@@@@@@@@@@@@@@@",
"@@@@@@@@@@@@@@@@@@@@@@@@@@@@@@@@@@@@@@@@",
"@@@@@@@@@@@@@@@@@@@@@@@@@@@@@@@@@@@@@@@@",
"@@@@@@@@@@@@@@@@@@@@@@@@@@@@@@@@@@@@@@@@",
"@@@@@@@@@@@@@@@@@@@@@@@@@@@@@@@@@@@@@@@@",
"@@@@@@@@@@@@@@@@@@@@@@@@@@@@@@@@@@@@@@@@",
"@@@@@@@@@@@@@@@@@@@@@@@@@@@@@@@@@@@@@@@@",
"@@@@@@@@@@@@@@@@@@@@@@@@@@@@@@@@@@@@@@@@",
"@@@@@@@@@@@@@@@@@@@@@@@@@@@@@@@@@@@@@@@@",
"@@@@@@@@@@@@@@@@@@@@@@@@@@@@@@@@@@@@@@@@",
"@@@@@@@@@@@@@@@@@@@@@@@@@@@@@@@@@@@@@@@@",
"@@@@@@@@@@@@@@@@@@@@@@@@@@@@@@@@@@@@@@@@",
"@@@@@@@@@@@@@@@@@@@@@@@@@@@@@@@@@@@@@@@@",
"@@@@@@@@@@@@@@@@@@@@@@@@@@@@@@@@@@@@@@@@",
"@@@@@@@@@@@@@@@@@@@@@@@@@@@@@@@@@@@@@@@@",
"@@@@@@.                          O@@@@@@",
"@@@@@@.                          O@@@@@@",
"@@@@@@.                          O@@@@@@",
"@@@@@@.                          O@@@@@@",
"@@@@@@.                          O@@@@@@",
"@@@@@@.                          O@@@@@@",
"@@@@@@.     X+@@@@@@@@@@@@@@@@@@@@@@@@@@",
"@@@@@@.     X+@@@@@@@@@@@@@@@@@@@@@@@@@@",
"@@@@@@.     X+@@@@@@@@@@@@@@@@@@@@@@@@@@",
"@@@@@@.     X+@@@@@@@@@@@@@@@@@@@@@@@@@@",
"@@@@@@.     X+@@@@@@@@@@@@@@@@@@@@@@@@@@",
"@@@@@@.     X+@@@@@@@@@@@@@@@@@@@@@@@@@@",
"@@@@@@.     X+@@@@@@@@@@@@@@@@@@@@@@@@@@",
"@@@@@@.     X+@@@@@@@@@@@@@@@@@@@@@@@@@@",
"@@@@@@.     X+@@@@@@@@@@@@@@@@@@@@@@@@@@",
"@@@@@@.     X+@@@@@@@@@@@@@@@@@@@@@@@@@@",
"@@@@@@.     X+@@@@@@@@@@@@@@@@@@@@@@@@@@",
"@@@@@@.     X+@@@@@@@@@@@@@@@@@@@@@@@@@@",
"@@@@@@.     X+@@@@@@@@@@@@@@@@@@@@@@@@@@",
"@@@@@@.     X+@@@@@@@@@@@@@@@@@@@@@@@@@@",
"@@@@@@.                         o@@@@@@@",
"@@@@@@.                         o@@@@@@@",
"@@@@@@.                         o@@@@@@@",
"@@@@@@.                         o@@@@@@@",
"@@@@@@.                         o@@@@@@@",
"@@@@@@.                         o@@@@@@@",
"@@@@@@.     X+@@@@@@@@@@@@@@@@@@@@@@@@@@",
"@@@@@@.     X+@@@@@@@@@@@@@@@@@@@@@@@@@@",
"@@@@@@.     X+@@@@@@@@@@@@@@@@@@@@@@@@@@",
"@@@@@@.     X+@@@@@@@@@@@@@@@@@@@@@@@@@@",
"@@@@@@.     X+@@@@@@@@@@@@@@@@@@@@@@@@@@",
"@@@@@@.     X+@@@@@@@@@@@@@@@@@@@@@@@@@@",
"@@@@@@.     X+@@@@@@@@@@@@@@@@@@@@@@@@@@",
"@@@@@@.     X+@@@@@@@@@@@@@@@@@@@@@@@@@@",
"@@@@@@.     X+@@@@@@@@@@@@@@@@@@@@@@@@@@",
"@@@@@@.     X+@@@@@@@@@@@@@@@@@@@@@@@@@@",
"@@@@@@.     X+@@@@@@@@@@@@@@@@@@@@@@@@@@",
"@@@@@@.     X+@@@@@@@@@@@@@@@@@@@@@@@@@@",
"@@@@@@.     X+@@@@@@@@@@@@@@@@@@@@@@@@@@",
"@@@@@@.     X+@@@@@@@@@@@@@@@@@@@@@@@@@@",
"@@@@@@.     X+@@@@@@@@@@@@@@@@@@@@@@@@@@",
"@@@@@@.     X+@@@@@@@@@@@@@@@@@@@@@@@@@@",
"@@@@@@.                          O@@@@@@",
"@@@@@@.                          O@@@@@@",
"@@@@@@.                          O@@@@@@",
"@@@@@@.                          O@@@@@@",
"@@@@@@.                          O@@@@@@",
"@@@@@@.                          O@@@@@@",
"@@@@@@@@@@@@@@@@@@@@@@@@@@@@@@@@@@@@@@@@",
"@@@@@@@@@@@@@@@@@@@@@@@@@@@@@@@@@@@@@@@@",
"@@@@@@@@@@@@@@@@@@@@@@@@@@@@@@@@@@@@@@@@",
"@@@@@@@@@@@@@@@@@@@@@@@@@@@@@@@@@@@@@@@@",
"@@@@@@@@@@@@@@@@@@@@@@@@@@@@@@@@@@@@@@@@",
"@@@@@@@@@@@@@@@@@@@@@@@@@@@@@@@@@@@@@@@@",
"@@@@@@@@@@@@@@@@@@@@@@@@@@@@@@@@@@@@@@@@",
"@@@@@@@@@@@@@@@@@@@@@@@@@@@@@@@@@@@@@@@@",
"@@@@@@@@@@@@@@@@@@@@@@@@@@@@@@@@@@@@@@@@",
"@@@@@@@@@@@@@@@@@@@@@@@@@@@@@@@@@@@@@@@@",
"@@@@@@@@@@@@@@@@@@@@@@@@@@@@@@@@@@@@@@@@",
"@@@@@@@@@@@@@@@@@@@@@@@@@@@@@@@@@@@@@@@@",
"@@@@@@@@@@@@@@@@@@@@@@@@@@@@@@@@@@@@@@@@",
"@@@@@@@@@@@@@@@@@@@@@@@@@@@@@@@@@@@@@@@@",
"@@@@@@@@@@@@@@@@@@@@@@@@@@@@@@@@@@@@@@@@",
"@@@@@@@@@@@@@@@@@@@@@@@@@@@@@@@@@@@@@@@@"
};
