/* XPM */
static char *_c54cbda274640d1c61ca9f196e810cbraNqsxwY9IkyqKbW[] = {
/* columns rows colors chars-per-pixel */
"40 80 36 1 ",
"  c black",
". c #3A0000",
"X c #00003A",
"o c #3A3A3A",
"O c #660000",
"+ c #663A00",
"@ c #000066",
"# c #003A66",
"$ c #002D73",
"% c #3A3A66",
"& c #3A6666",
"* c #903A00",
"= c #B66600",
"- c #90663A",
"; c #DB903A",
": c #B69066",
"> c #FFB666",
", c #003A90",
"< c #3A6690",
"1 c #0066B6",
"2 c #3A66B6",
"3 c #6690B6",
"4 c #3A90DB",
"5 c #66B6DB",
"6 c #66B6FF",
"7 c #DBB690",
"8 c #FFDB90",
"9 c #FFFFB6",
"0 c #90B6DB",
"q c #B6DBDB",
"w c #90DBFF",
"e c #B6DBFF",
"r c #B6FFFF",
"t c #FFFFDB",
"y c #DBFFFF",
"u c white",
/* pixels */
"uuuuuuuuuuuuuuuuuuuuuuuuuuuuuuuuuuuuuuuu",
"uuuuuuuuuuuuuuuuuuuuuuuuuuuuuuuuuuuuuuuu",
"uuuuuuuuuuuuuuuuuuuuuuuuuuuuuuuuuuuuuuuu",
"uuuuuuuuuuuuuuuuuuuuuuuuuuuuuuuuuuuuuuuu",
"uuuuuuuuuuuuuuuuuuuuuuuuuuuuuuuuuuuuuuuu",
"uuuuuuuuuuuuuuuuuuuuuuuuuuuuuuuuuuuuuuuu",
"uuuuuuuuuuuuuuuuuuuuuuuuuuuuuuuuuuuuuuuu",
"uuuuuuuuuuuuuuuuuuuuuuuuuuuuuuuuuuuuuuuu",
"uuuuuuuuuuuuuuuuuuuuuuuuuuuuuuuuuuuuuuuu",
"uuuuuuuuuuuuuuuuuuuuuuuuuuuuuuuuuuuuuuuu",
"uuuuuuuuuuuuuuuuuuuuuuuuuuuuuuuuuuuuuuuu",
"uuuuuuuuuuuuuuuuuuuuuuuuuuuuuuuuuuuuuuuu",
"uuuuuuuuuuuuuuuuuuuuuuuuuuuuuuuuuuuuuuuu",
"uuuuuuuuuuuuuuuuuuuuuuuuuuuuuuuuuuuuuuuu",
"uuuuuuuuuuuuuuuuuuuuuuuuuuuuuuuuuuuuuuuu",
"uuuuuuuuuuuuuuuuuuuuuuuuuuuuuuuuuuuuuuuu",
"uuuu8.               o&3q        4uuuuuu",
"uuuu8.                    #0     4uuuuuu",
"uuuu8.                      X5   4uuuuuu",
"uuuu8.                        $  4uuuuuu",
"uuuu8.                         # 4uuuuuu",
"uuuu8.     6          -.        @ruuuuuu",
"uuuu8.     6,yuuuuuuuuuu7+       1uuuuuu",
"uuuu8.     6,yuuuuuuuuuuut=       6uuuuu",
"uuuu8.     6,yuuuuuuuuuuuuu=      ,yuuuu",
"uuuu8.     6,yuuuuuuuuuuuuu9O     Xwuuuu",
"uuuu8.     6,yuuuuuuuuuuuuuu;      4uuuu",
"uuuu8.     6,yuuuuuuuuuuuuuu8.     ,yuuu",
"uuuu8.     6,yuuuuuuuuuuuuuu9O     ,yuuu",
"uuuu8.     6,yuuuuuuuuuuuuuut*     @ruuu",
"uuuu8.     6,yuuuuuuuuuuuuuut*     @ruuu",
"uuuu8.     6,yuuuuuuuuuuuuuut*     @ruuu",
"uuuu8.     6,yuuuuuuuuuuuuuut*     @ruuu",
"uuuu8.     6,yuuuuuuuuuuuuuu9O     ,yuuu",
"uuuu8.     6,yuuuuuuuuuuuuuu>      1uuuu",
"uuuu8.     6,yuuuuuuuuuuuuuu=      6uuuu",
"uuuu8.     6               8.     @ruuuu",
"uuuu8.     6               *      1uuuuu",
"uuuu8.     6              +      Xwuuuuu",
"uuuu8.     6            :.       4uuuuuu",
"uuuu8.     6                    ,yuuuuuu",
"uuuu8.                         ,yuuuuuuu",
"uuuu8.                        ,yuuuuuuuu",
"uuuu8.                       2yuuuuuuuuu",
"uuuu8.                     #euuuuuuuuuuu",
"uuuu8.                   <euuuuuuuuuuuuu",
"uuuu8.              o%3quuuuuuuuuuuuuuuu",
"uuuu8.     6,yuuuuuuuuuuuuuuuuuuuuuuuuuu",
"uuuu8.     6,yuuuuuuuuuuuuuuuuuuuuuuuuuu",
"uuuu8.     6,yuuuuuuuuuuuuuuuuuuuuuuuuuu",
"uuuu8.     6,yuuuuuuuuuuuuuuuuuuuuuuuuuu",
"uuuu8.     6,yuuuuuuuuuuuuuuuuuuuuuuuuuu",
"uuuu8.     6,yuuuuuuuuuuuuuuuuuuuuuuuuuu",
"uuuu8.     6,yuuuuuuuuuuuuuuuuuuuuuuuuuu",
"uuuu8.     6,yuuuuuuuuuuuuuuuuuuuuuuuuuu",
"uuuu8.     6,yuuuuuuuuuuuuuuuuuuuuuuuuuu",
"uuuu8.     6,yuuuuuuuuuuuuuuuuuuuuuuuuuu",
"uuuu8.     6,yuuuuuuuuuuuuuuuuuuuuuuuuuu",
"uuuu8.     6                     4uuuuuu",
"uuuu8.     6                     4uuuuuu",
"uuuu8.     6                     4uuuuuu",
"uuuu8.     6                     4uuuuuu",
"uuuu8.     6                     4uuuuuu",
"uuuu8.     6                     4uuuuuu",
"uuuuuuuuuuuuuuuuuuuuuuuuuuuuuuuuuuuuuuuu",
"uuuuuuuuuuuuuuuuuuuuuuuuuuuuuuuuuuuuuuuu",
"uuuuuuuuuuuuuuuuuuuuuuuuuuuuuuuuuuuuuuuu",
"uuuuuuuuuuuuuuuuuuuuuuuuuuuuuuuuuuuuuuuu",
"uuuuuuuuuuuuuuuuuuuuuuuuuuuuuuuuuuuuuuuu",
"uuuuuuuuuuuuuuuuuuuuuuuuuuuuuuuuuuuuuuuu",
"uuuuuuuuuuuuuuuuuuuuuuuuuuuuuuuuuuuuuuuu",
"uuuuuuuuuuuuuuuuuuuuuuuuuuuuuuuuuuuuuuuu",
"uuuuuuuuuuuuuuuuuuuuuuuuuuuuuuuuuuuuuuuu",
"uuuuuuuuuuuuuuuuuuuuuuuuuuuuuuuuuuuuuuuu",
"uuuuuuuuuuuuuuuuuuuuuuuuuuuuuuuuuuuuuuuu",
"uuuuuuuuuuuuuuuuuuuuuuuuuuuuuuuuuuuuuuuu",
"uuuuuuuuuuuuuuuuuuuuuuuuuuuuuuuuuuuuuuuu",
"uuuuuuuuuuuuuuuuuuuuuuuuuuuuuuuuuuuuuuuu",
"uuuuuuuuuuuuuuuuuuuuuuuuuuuuuuuuuuuuuuuu",
"uuuuuuuuuuuuuuuuuuuuuuuuuuuuuuuuuuuuuuuu"
};
